<?xml version="1.0" encoding="utf-8"?>
<!-- Generator: Adobe Illustrator 24.0.1, SVG Export Plug-In . SVG Version: 6.00 Build 0)  -->
<svg version="1.1" id="logo" xmlns="http://www.w3.org/2000/svg" xmlns:xlink="http://www.w3.org/1999/xlink" x="0px" y="0px"
	 viewBox="0 0 166 48.3" style="enable-background:new 0 0 166 48.3;" xml:space="preserve">
<style type="text/css">
	.st0{fill-rule:evenodd;clip-rule:evenodd;fill:#65E2D9;}
	.st1{fill:#FFFFFF;}
</style>
<path id="Path_1" class="st0" d="M0,14.1v0.1l28,13.1l28-13.2v0L28,1L0,14.1z M10.1,14.2L28,5.8l17.9,8.4L28,22.6L10.1,14.2
	L10.1,14.2z M28,32.5L0,19.5v4.8l28,13l28-13v-4.8L28,32.5z M28,42.2L0,29.2V34l28,13l28-13v-4.8L28,42.2z"/>
<g id="Group_1" transform="translate(72.015)">
	<g>
		<path class="st1" d="M-9.7,47.1V0.8h2.5l5.6,23.4c1.3,5.4,2.3,10.3,3.1,15l0.1-0.1c-0.2-6.2-0.3-11.8-0.3-19V0.8h2.1v46.3H1.1
			l-5.5-23.5c-1.2-5.2-2.4-10.4-3.3-15.5l-0.1,0.1c0.1,5.8,0.2,11.4,0.2,19.1v19.8H-9.7z"/>
		<path class="st1" d="M8.5,31.6c0.1,8.2,2,11.5,4.3,11.5c1.6,0,2.6-0.8,3.5-1.7l0.4,4.3c-0.8,1-2.2,2.1-4.2,2.1
			c-3.9,0-6.2-6.7-6.2-16.8c0-10,2.2-17.9,5.9-17.9c4.1,0,5.2,9.5,5.2,15.7c0,1.2-0.1,2.2-0.1,2.8H8.5z M15.2,27.3
			c0-3.8-0.6-9.8-3.2-9.8c-2.3,0-3.3,5.6-3.5,9.8H15.2z"/>
		<path class="st1" d="M19.9,40.9c0.7,1.2,1.9,2.4,3,2.4c1.7,0,2.4-2.2,2.4-4.9c0-2.9-0.6-4.5-2.3-6.1c-2.3-2.1-3.3-5.4-3.3-9.4
			c0-5.4,1.6-9.8,4.3-9.8c1.3,0,2.4,1,3.1,2.1l-0.6,4.4c-0.5-0.8-1.4-1.9-2.6-1.9c-1.3,0-2.1,2.1-2.1,4.5c0,2.7,0.8,4,2.4,5.6
			c2.2,2.2,3.3,5.1,3.3,10c0,5.8-1.7,10-4.7,10c-1.4,0-2.6-0.9-3.5-2.3L19.9,40.9z"/>
		<path class="st1" d="M33.2,4.3v9.5h3.3v4.6h-3.3v17.9c0,4.1,0.4,6.5,1.7,6.5c0.6,0,1-0.2,1.3-0.4l0.1,4.5c-0.4,0.5-1.1,0.8-2,0.8
			c-1.1,0-1.9-0.9-2.5-2.5c-0.6-1.8-0.9-4.7-0.9-8.7V18.5H29v-4.6H31v-8L33.2,4.3z"/>
		<path class="st1" d="M39.1,1.4c1.4-0.5,3-1,4.8-1c3.2,0,5.5,2,7.1,5.8c1.6,3.8,2.5,9.1,2.5,16.6c0,7.6-0.9,13.7-2.5,18
			c-1.6,4.3-4.3,6.7-7.7,6.7c-1.6,0-2.9-0.2-4.1-0.5V1.4z M41.3,42.4c0.6,0.3,1.4,0.3,2.3,0.3c4.8,0,7.4-7.1,7.4-19.6
			c0-10.9-2.3-17.9-7.1-17.9c-1.2,0-2,0.3-2.6,0.6V42.4z"/>
		<path class="st1" d="M56.2,24.2c0-3.9,0-7.3-0.1-10.4h2l0.1,6.5h0.1c0.6-4.5,1.9-7.3,3.5-7.3c0.3,0,0.4,0.1,0.6,0.2V19
			c-0.2-0.1-0.5-0.2-0.8-0.2c-1.6,0-2.7,3.2-3.1,7.8c-0.1,0.8-0.1,1.8-0.1,2.8v17.7h-2.3V24.2z"/>
		<path class="st1" d="M67.3,4.5c0,2.1-0.5,3.7-1.4,3.7c-0.8,0-1.4-1.6-1.4-3.7c0-2.1,0.6-3.8,1.4-3.8C66.8,0.8,67.3,2.4,67.3,4.5z
			 M64.8,47.1V13.9h2.3v33.2H64.8z"/>
		<path class="st1" d="M71.7,13.9l2.5,18.7c0.4,3,0.8,5.8,1,8.5h0.1c0.3-2.7,0.6-5.5,1.1-8.5l2.4-18.7h2.4l-4.9,33.2h-2.2l-4.8-33.2
			H71.7z"/>
		<path class="st1" d="M84.3,31.6c0.1,8.2,2,11.5,4.3,11.5c1.6,0,2.6-0.8,3.5-1.7l0.4,4.3c-0.8,1-2.2,2.1-4.2,2.1
			c-3.9,0-6.2-6.7-6.2-16.8c0-10,2.2-17.9,5.9-17.9c4.1,0,5.2,9.5,5.2,15.7c0,1.2-0.1,2.2-0.1,2.8H84.3z M91,27.3
			c0-3.8-0.6-9.8-3.2-9.8c-2.3,0-3.3,5.6-3.5,9.8H91z"/>
	</g>
</g>
</svg>