<?xml version="1.0" standalone="no"?>
<!DOCTYPE svg PUBLIC "-//W3C//DTD SVG 20010904//EN"
 "http://www.w3.org/TR/2001/REC-SVG-20010904/DTD/svg10.dtd">
<svg version="1.0" xmlns="http://www.w3.org/2000/svg"
 width="300.000000pt" height="600.000000pt" viewBox="0 0 199.000000 325.000000"
 preserveAspectRatio="xMidYMid meet">
<g transform="translate(0.000000,325.000000) scale(0.100000,-0.100000)"
fill="#000000" stroke="none">
<path d="M0 1625 l0 -1625 995 0 995 0 0 1625 0 1625 -995 0 -995 0 0 -1625z
m1165 1325 c258 -37 450 -139 518 -276 68 -135 49 -337 -44 -477 -70 -106
-205 -197 -364 -248 -55 -17 -107 -34 -115 -37 -8 -3 12 -9 45 -14 239 -34
368 -85 469 -185 92 -91 129 -190 129 -348 0 -189 -54 -326 -168 -434 -78 -73
-145 -111 -260 -150 -186 -62 -227 -65 -795 -66 l-515 0 0 25 0 25 122 3 123
3 0 616 0 616 33 -6 c17 -3 75 -13 127 -23 64 -11 151 -17 270 -18 157 -1 183
1 250 23 96 30 148 60 209 123 95 97 141 220 141 379 0 241 -117 367 -373 400
-202 26 -407 -26 -524 -134 -66 -61 -107 -153 -79 -176 20 -17 38 -6 61 36 26
48 62 73 113 80 61 8 108 -4 149 -40 47 -41 63 -82 63 -160 0 -52 -5 -71 -26
-102 -34 -50 -60 -71 -113 -90 -119 -41 -234 4 -296 116 -26 47 -30 64 -29
134 0 98 22 152 89 224 86 92 196 146 355 174 98 18 333 21 435 7z m-689
-2584 c22 -18 28 -32 27 -60 -1 -21 -9 -46 -18 -56 -16 -18 -16 -20 11 -43 21
-19 28 -33 28 -62 0 -67 -68 -102 -184 -93 l-45 3 -3 168 -2 167 79 0 c70 0
83 -3 107 -24z m360 5 c63 -38 84 -152 44 -239 -33 -74 -130 -102 -217 -63
-56 26 -77 67 -78 151 0 77 26 128 78 154 45 22 134 21 173 -3z m370 3 c50
-24 78 -89 71 -166 -9 -103 -62 -153 -160 -153 -105 0 -157 56 -157 167 0 105
59 168 157 168 30 0 70 -7 89 -16z m294 -94 c41 -61 80 -116 87 -122 11 -8 13
13 13 111 l0 121 25 0 25 0 -2 -167 -3 -168 -27 -3 c-24 -3 -35 9 -109 117
-55 80 -86 117 -91 108 -4 -6 -8 -61 -8 -120 0 -106 0 -108 -22 -105 -22 3
-22 6 -25 162 -1 88 0 163 3 168 3 4 17 8 32 8 24 0 38 -15 102 -110z"/>
<path d="M660 1319 l0 -552 173 6 c190 6 254 19 351 70 161 85 235 242 236
494 0 132 -12 196 -51 279 -50 107 -153 179 -309 217 -71 18 -251 37 -342 37
l-58 0 0 -551z"/>
<path d="M694 336 c-62 -28 -74 -166 -20 -213 32 -27 100 -31 133 -8 45 32 49
164 6 207 -25 25 -81 31 -119 14z"/>
<path d="M1084 343 c-40 -8 -58 -40 -62 -112 -4 -61 -2 -70 23 -99 23 -27 33
-32 72 -32 36 0 50 6 74 29 25 26 29 37 29 88 0 73 -24 117 -70 127 -18 3 -35
5 -39 5 -3 -1 -16 -4 -27 -6z"/>
</g>
</svg>
