 <svg version="1.0" xmlns="http://www.w3.org/2000/svg"  width="118.000000pt" height="30.000000pt" viewBox="0 0 118.000000 30.000000"  preserveAspectRatio="xMidYMid meet">  <g transform="translate(0.000000,100.000000) scale(0.100000,-0.100000)" fill="#000000" stroke="none"> <path d="M380 941 c-22 -34 -43 -61 -45 -61 -2 0 -20 25 -40 56 -20 30 -41 54 -48 51 -18 -6 -76 -85 -83 -114 -4 -13 -2 -29 4 -35 13 -13 141 -11 158 3 8 7 14 7 19 -1 9 -14 148 -13 163 2 9 9 12 9 12 0 0 -19 135 -16 164 4 14 8 39 40 57 70 18 30 36 54 39 54 3 -1 22 -28 42 -60 l37 -60 -79 0 c-47 0 -80 -4 -80 -10 0 -6 31 -10 74 -10 99 0 108 11 67 83 -54 94 -68 95 -118 10 -13 -24 -28 -43 -32 -43 -4 0 -14 12 -22 28 -13 26 -18 32 -47 67 -20 23 -33 15 -70 -41 -19 -27 -37 -50 -40 -51 -4 -2 -20 20 -37 48 -46 78 -48 78 -95 10z m-95 -27 c20 -31 34 -58 32 -61 -3 -2 -36 -3 -75 -1 l-71 3 35 58 c20 31 37 57 39 57 3 0 21 -25 40 -56z m193 -26 l23 -38 -75 0 c-42 0 -76 2 -76 5 0 2 16 30 37 62 l36 57 16 -24 c9 -13 26 -41 39 -62z m165 22 l36 -60 -74 0 c-41 0 -75 3 -75 6 0 10 65 113 71 114 4 0 23 -27 42 -60z"/> <path d="M342 778 c-8 -8 -7 -19 6 -42 9 -17 19 -33 23 -36 3 -3 16 -23 28 -45 39 -65 74 -119 94 -142 l19 -21 24 21 c13 11 24 24 24 29 0 4 30 55 66 113 87 138 90 135 -115 135 -106 0 -161 -4 -169 -12z m328 -12 c0 -3 -147 -244 -155 -254 -1 -2 -39 56 -83 128 l-81 130 160 0 c87 0 159 -2 159 -4z"/> <path d="M298 638 c-14 -18 -35 -51 -48 -73 -13 -22 -38 -64 -57 -93 -20 -30 -33 -62 -31 -75 3 -22 6 -22 157 -25 195 -3 209 5 152 90 -16 24 -38 61 -50 83 -30 57 -74 118 -88 122 -6 2 -22 -11 -35 -29z m112 -111 c41 -67 77 -125 78 -129 2 -5 -69 -8 -158 -8 -89 0 -160 3 -158 8 9 22 154 251 158 251 3 0 39 -55 80 -122z"/> <path d="M670 643 c-22 -28 -114 -174 -138 -219 -26 -48 -7 -54 163 -54 185 0 191 3 148 82 -15 29 -31 55 -34 58 -3 3 -22 32 -42 66 -20 33 -45 68 -55 78 -19 16 -21 16 -42 -11z m113 -130 l76 -123 -164 0 -164 0 81 130 c45 72 85 127 89 123 4 -5 41 -63 82 -130z"/> <path d="M158 328 c-7 -4 -21 -5 -31 -2 -11 4 -28 -2 -41 -15 -21 -20 -22 -28 -19 -129 1 -59 3 -112 3 -119 0 -23 72 -63 99 -56 32 8 98 48 103 63 2 6 21 -5 42 -25 52 -47 78 -46 131 8 l42 42 40 -41 c59 -62 74 -62 138 1 48 47 55 50 55 30 0 -12 9 -34 21 -49 20 -26 21 -26 50 -9 34 20 44 45 30 72 -13 23 1 37 17 18 5 -6 16 -28 24 -47 25 -59 41 -66 79 -32 31 27 31 30 19 66 -8 25 -10 62 -6 108 6 55 4 75 -9 94 -20 31 -30 30 -66 -6 -24 -23 -28 -35 -24 -57 l7 -28 -21 25 c-11 14 -21 30 -21 36 0 7 -8 22 -18 35 l-19 22 -37 -28 c-34 -26 -38 -26 -54 -12 -10 9 -35 23 -56 32 -37 16 -39 16 -64 -7 -15 -13 -36 -33 -48 -46 l-21 -23 -26 35 c-15 19 -43 40 -62 46 -34 11 -38 10 -74 -22 -21 -18 -47 -50 -57 -70 -24 -47 -38 -49 -30 -3 9 48 -14 91 -53 97 -17 2 -36 1 -43 -4z m60 -24 c28 -19 28 -51 0 -81 l-21 -23 21 0 c26 0 52 -36 52 -73 0 -20 -11 -40 -33 -62 -45 -45 -81 -53 -115 -28 -26 19 -27 25 -30 119 -1 54 -7 103 -12 108 -6 6 -4 16 7 28 18 20 43 24 43 7 0 -5 10 -3 22 5 12 9 27 16 33 16 6 0 21 -7 33 -16z m250 -45 c43 -63 16 -158 -62 -220 -27 -22 -28 -22 -54 -2 -91 68 -92 180 -2 257 29 24 34 25 63 13 18 -8 43 -29 55 -48z m205 24 c25 -23 41 -85 33 -128 -7 -36 -61 -107 -97 -125 -13 -8 -25 -4 -49 16 -81 69 -79 169 6 244 30 26 38 28 62 19 15 -6 35 -18 45 -26z m125 -2 c6 -16 27 -53 46 -83 l36 -53 0 53 c0 28 -4 52 -10 52 -18 0 -10 14 22 39 41 33 50 16 43 -79 -3 -41 -2 -89 4 -107 8 -27 6 -34 -15 -54 -21 -20 -26 -21 -34 -9 -5 8 -10 23 -10 33 0 16 -75 137 -85 137 -7 0 8 -115 16 -126 5 -7 -1 -20 -16 -34 -20 -19 -27 -21 -40 -10 -12 10 -15 35 -15 111 0 70 -4 99 -12 99 -6 0 1 14 17 30 36 37 41 37 53 1z"/> <path d="M153 283 c-8 -3 -13 -22 -13 -45 0 -32 3 -39 16 -34 9 3 20 6 25 6 14 0 11 56 -3 67 -7 6 -19 8 -25 6z"/> <path d="M152 178 c-19 -19 -15 -82 6 -101 24 -22 39 -21 52 2 16 31 12 69 -10 91 -23 23 -31 25 -48 8z m44 -43 c3 -14 3 -32 0 -41 -10 -25 -36 2 -36 37 0 37 27 39 36 4z"/> <path d="M336 244 c-30 -78 48 -207 91 -148 28 39 7 143 -32 158 -28 11 -53 7 -59 -10z m63 -30 c28 -36 29 -104 2 -104 -27 0 -51 38 -51 81 0 56 17 64 49 23z"/> <path d="M557 253 c-12 -11 -7 -97 6 -123 7 -13 25 -31 40 -40 26 -14 29 -14 43 4 27 37 10 137 -26 156 -21 11 -54 13 -63 3z m49 -21 c30 -20 44 -90 24 -122 -22 -36 -76 62 -59 108 9 23 17 27 35 14z"/> </g> </svg> 